<?xml version="1.0" encoding="UTF-8"?>
<!-- Generator: Adobe Illustrator 25.1.0, SVG Export Plug-In . SVG Version: 6.00 Build 0)  -->
<svg version="1.1" id="Calque_1" xmlns="http://www.w3.org/2000/svg" xmlns:xlink="http://www.w3.org/1999/xlink" x="0px" y="0px" viewBox="0 0 214.22 108.36" style="enable-background:new 0 0 214.22 108.36;" xml:space="preserve">
    <style type="text/css">
	.st0{fill:#F88D2A;}
</style>
<g>
	<path class="st0" d="M24.31,99.9l-4.83-6.76c-0.71,0.1-1.37,0.14-1.97,0.14h-5.78v6.62h-1.48V79.67h7.26c2.54,0,4.54,0.6,5.98,1.81   c1.45,1.2,2.17,2.88,2.17,5.02c0,1.6-0.41,2.94-1.23,4.03c-0.82,1.09-1.99,1.86-3.51,2.3l5.06,7.08H24.31z M17.51,91.98   c2.16,0,3.81-0.48,4.94-1.43c1.14-0.96,1.71-2.31,1.71-4.06s-0.57-3.11-1.71-4.06c-1.14-0.95-2.79-1.43-4.94-1.43h-5.78v10.99   H17.51z"/>
	<path class="st0" d="M45.04,98.57v1.33H31.07V79.67H44.6v1.33H32.55v7.98h10.78v1.3H32.55v8.3H45.04z"/>
	<path class="st0" d="M66.89,79.67V99.9h-1.21L51.89,82.32V99.9h-1.48V79.67h1.24l13.76,17.58V79.67H66.89z"/>
	<path class="st0" d="M77.16,98.7c-1.6-0.9-2.86-2.13-3.77-3.69c-0.92-1.56-1.37-3.31-1.37-5.23s0.46-3.67,1.37-5.23   c0.92-1.56,2.17-2.79,3.77-3.69c1.6-0.9,3.39-1.34,5.38-1.34s3.78,0.44,5.38,1.33c1.6,0.89,2.86,2.11,3.77,3.67   c0.92,1.56,1.37,3.31,1.37,5.26c0,1.95-0.46,3.7-1.37,5.26c-0.92,1.56-2.17,2.79-3.77,3.67c-1.6,0.89-3.39,1.33-5.38,1.33   S78.76,99.6,77.16,98.7z M87.13,97.53c1.37-0.77,2.45-1.84,3.24-3.2c0.79-1.36,1.19-2.88,1.19-4.55s-0.39-3.2-1.19-4.55   c-0.79-1.36-1.87-2.42-3.24-3.2c-1.37-0.77-2.9-1.16-4.6-1.16s-3.23,0.39-4.61,1.16c-1.38,0.77-2.46,1.84-3.25,3.2   c-0.79,1.36-1.18,2.88-1.18,4.55s0.39,3.19,1.18,4.55c0.79,1.36,1.87,2.42,3.25,3.2c1.38,0.77,2.92,1.16,4.61,1.16   S85.76,98.3,87.13,97.53z"/>
	<path class="st0" d="M113.73,79.67l-9.02,20.24h-1.47l-9.02-20.24h1.62L104.02,98l8.18-18.33H113.73z"/>
	<path class="st0" d="M128.91,94.21h-11.74l-2.57,5.7h-1.59l9.31-20.24h1.48l9.31,20.24h-1.59L128.91,94.21z M128.36,92.96   l-5.32-11.68l-5.29,11.68H128.36z"/>
	<path class="st0" d="M139.64,80.99h-7.29v-1.33h16.05v1.33h-7.28V99.9h-1.48V80.99z"/>
	<path class="st0" d="M152.04,79.67h1.48V99.9h-1.48V79.67z"/>
	<path class="st0" d="M163.78,98.7c-1.6-0.9-2.86-2.13-3.77-3.69c-0.92-1.56-1.37-3.31-1.37-5.23s0.46-3.67,1.37-5.23   c0.92-1.56,2.17-2.79,3.77-3.69c1.6-0.9,3.39-1.34,5.38-1.34c1.99,0,3.78,0.44,5.38,1.33c1.6,0.89,2.86,2.11,3.77,3.67   c0.92,1.56,1.37,3.31,1.37,5.26c0,1.95-0.46,3.7-1.37,5.26c-0.92,1.56-2.17,2.79-3.77,3.67c-1.6,0.89-3.39,1.33-5.38,1.33   C167.17,100.05,165.38,99.6,163.78,98.7z M173.75,97.53c1.37-0.77,2.45-1.84,3.24-3.2c0.79-1.36,1.19-2.88,1.19-4.55   s-0.39-3.2-1.19-4.55c-0.79-1.36-1.87-2.42-3.24-3.2c-1.37-0.77-2.9-1.16-4.6-1.16c-1.7,0-3.23,0.39-4.61,1.16   c-1.38,0.77-2.46,1.84-3.25,3.2c-0.79,1.36-1.18,2.88-1.18,4.55s0.39,3.19,1.18,4.55c0.79,1.36,1.87,2.42,3.25,3.2   c1.38,0.77,2.92,1.16,4.61,1.16C170.85,98.69,172.38,98.3,173.75,97.53z"/>
	<path class="st0" d="M201.28,79.67V99.9h-1.21l-13.79-17.58V99.9h-1.48V79.67h1.24l13.76,17.58V79.67H201.28z"/>
</g>
<g>
	<path d="M29.15,67.34c-2.38,0-4.78-0.37-7.2-1.11c-2.41-0.74-4.67-1.76-6.76-3.06c-2.09-1.3-3.88-2.74-5.37-4.33L16.9,52   c1.59,1.64,3.51,2.97,5.76,3.97c2.25,1.01,4.36,1.51,6.32,1.51c2.49,0,4.6-0.73,6.32-2.19c1.72-1.46,2.58-3.19,2.58-5.21   c0-1.64-0.61-3.06-1.83-4.25c-1.22-1.19-2.73-2.05-4.53-2.59c-4.72-1.27-8.73-2.62-12.05-4.05c-3.31-1.43-5.76-3.31-7.35-5.65   s-2.17-5.46-1.75-9.38c0.37-3.07,1.39-5.63,3.06-7.67c1.67-2.04,3.79-3.56,6.36-4.57c2.57-1.01,5.42-1.51,8.55-1.51   c2.81,0,5.75,0.44,8.83,1.31c3.07,0.88,6.12,2.32,9.14,4.33l-6.76,7c-1.54-0.85-3.21-1.56-5.01-2.15c-1.8-0.58-3.66-0.9-5.57-0.95   c-1.49-0.05-2.9,0.09-4.25,0.44c-1.35,0.34-2.48,0.93-3.38,1.75c-0.9,0.82-1.38,1.92-1.43,3.3c-0.05,1.54,0.34,2.73,1.19,3.58   c0.85,0.85,2.03,1.54,3.54,2.07c1.51,0.53,3.27,1.11,5.29,1.75c3.71,1.01,6.86,2.16,9.46,3.46c2.6,1.3,4.58,3.02,5.96,5.17   c1.38,2.15,2.07,5.02,2.07,8.63c0,3.24-0.82,6.15-2.47,8.75c-1.64,2.6-3.84,4.67-6.6,6.2C35.62,66.57,32.54,67.34,29.15,67.34z"/>
	<path d="M79.4,67.42c-3.82,0-7.34-0.76-10.58-2.27c-3.23-1.51-6.1-3.51-8.59-6c-2.49-2.55-4.45-5.53-5.88-8.95   c-1.43-3.42-2.15-7.22-2.15-11.41c0-4.08,0.73-7.86,2.19-11.33c1.46-3.47,3.41-6.51,5.84-9.11c2.44-2.54,5.29-4.56,8.55-6.04   c3.26-1.48,6.8-2.23,10.61-2.23c4.03,0,7.87,0.91,11.53,2.74c3.66,1.83,7.05,4.65,10.18,8.47l-7.71,6.36   c-2.17-2.7-4.43-4.65-6.76-5.84c-2.33-1.19-4.74-1.79-7.24-1.79c-2.38,0-4.6,0.48-6.64,1.43c-2.04,0.95-3.88,2.28-5.53,3.98   c-1.59,1.64-2.84,3.59-3.74,5.84c-0.9,2.25-1.35,4.76-1.35,7.51c0,2.76,0.45,5.24,1.35,7.44c0.9,2.2,2.15,4.15,3.74,5.84   c1.59,1.7,3.42,3.02,5.49,3.97c2.07,0.96,4.29,1.43,6.68,1.43c2.49,0,4.9-0.6,7.24-1.79c2.33-1.19,4.58-3.14,6.76-5.84l7.71,6.36   c-3.13,3.82-6.52,6.64-10.18,8.47C87.27,66.51,83.43,67.42,79.4,67.42z"/>
	<path d="M105.88,66.47l17.17-55.58h12.01l17.25,55.58h-10.18l-3.98-13.44h-18.13l-3.98,13.44H105.88z M129.1,22.81l-6.52,21.95   h13.04L129.1,22.81z"/>
	<path d="M200.97,66.55h-12.24l-19.72-43.25v43.18h-9.54V10.89h13.12l18.84,42.38V10.89h9.54V66.55z"/>
</g>
<circle class="st0" cx="78.73" cy="39.03" r="9.03"/>
<rect x="10.25" y="72.64" class="st0" width="191.02" height="1.17"/>
</svg>